<svg width="24" height="23" viewBox="0 0 24 23" fill="none" xmlns="http://www.w3.org/2000/svg">
<path d="M12 15C9.92893 15 8.25 13.3211 8.25 11.25C8.25 9.17893 9.92893 7.5 12 7.5C14.0711 7.5 15.75 9.17893 15.75 11.25C15.75 13.3211 14.0711 15 12 15Z" stroke="#60778C" stroke-width="1.5"/>
<mask id="path-2-inside-1_217_2" fill="white">
<path fill-rule="evenodd" clip-rule="evenodd" d="M23.1278 11.25C21.3476 15.6477 17.0361 18.75 12 18.75C6.96397 18.75 2.65248 15.6477 0.872314 11.25C2.65248 6.85225 6.96397 3.75 12 3.75C17.0361 3.75 21.3476 6.85226 23.1278 11.25Z"/>
</mask>
<path d="M23.1278 11.25L24.5182 11.8128L24.746 11.25L24.5182 10.6872L23.1278 11.25ZM0.872353 11.25L-0.518053 10.6872L-0.745878 11.25L-0.518053 11.8128L0.872353 11.25ZM21.7374 10.6872C20.1786 14.538 16.4043 17.25 12.0001 17.25V20.25C17.668 20.25 22.5166 16.7575 24.5182 11.8128L21.7374 10.6872ZM12.0001 17.25C7.59588 17.25 3.82152 14.538 2.26276 10.6872L-0.518053 11.8128C1.48351 16.7575 6.33214 20.25 12.0001 20.25V17.25ZM2.26276 11.8128C3.82152 7.96203 7.59588 5.25 12.0001 5.25V2.25C6.33214 2.25 1.48351 5.74248 -0.518053 10.6872L2.26276 11.8128ZM12.0001 5.25C16.4043 5.25 20.1786 7.96203 21.7374 11.8128L24.5182 10.6872C22.5166 5.74248 17.668 2.25 12.0001 2.25V5.25Z" fill="#60778C" mask="url(#path-2-inside-1_217_2)"/>
<path d="M15.75 1.5L8.25 21.75" stroke="#60778C" stroke-width="1.5" stroke-linecap="round"/>
<path d="M16.9458 1.5L9.4458 21.75" stroke="white" stroke-width="1.5" stroke-linecap="round"/>
</svg>
