<svg width="23" height="16" viewBox="0 0 23 16" fill="none" xmlns="http://www.w3.org/2000/svg">
<path d="M11.1277 11.5C9.05662 11.5 7.37769 9.82107 7.37769 7.75C7.37769 5.67893 9.05662 4 11.1277 4C13.1988 4 14.8777 5.67893 14.8777 7.75C14.8777 9.82107 13.1988 11.5 11.1277 11.5Z" stroke="#60778C" stroke-width="1.5"/>
<mask id="path-2-inside-1_218_3" fill="white">
<path fill-rule="evenodd" clip-rule="evenodd" d="M22.2554 7.75C20.4753 12.1477 16.1638 15.25 11.1277 15.25C6.09166 15.25 1.78016 12.1477 0 7.75C1.78016 3.35225 6.09166 0.25 11.1277 0.25C16.1638 0.25 20.4753 3.35226 22.2554 7.75Z"/>
</mask>
<path d="M22.2554 7.75L23.6459 8.31282L23.8737 7.75L23.6459 7.18718L22.2554 7.75ZM0 7.75L-1.39041 7.18718L-1.61823 7.75L-1.39041 8.31282L0 7.75ZM20.865 7.18718C19.3063 11.038 15.5319 13.75 11.1277 13.75V16.75C16.7957 16.75 21.6443 13.2575 23.6459 8.31282L20.865 7.18718ZM11.1277 13.75C6.72353 13.75 2.94917 11.038 1.39041 7.18718L-1.39041 8.31282C0.611157 13.2575 5.45979 16.75 11.1277 16.75V13.75ZM1.39041 8.31282C2.94917 4.46203 6.72353 1.75 11.1277 1.75V-1.25C5.45979 -1.25 0.611157 2.24248 -1.39041 7.18718L1.39041 8.31282ZM11.1277 1.75C15.5319 1.75 19.3063 4.46203 20.865 8.31282L23.6459 7.18718C21.6443 2.24248 16.7957 -1.25 11.1277 -1.25V1.75Z" fill="#60778C" mask="url(#path-2-inside-1_218_3)"/>
</svg>
