<svg width="147" height="125" viewBox="0 0 147 125" fill="none" xmlns="http://www.w3.org/2000/svg">
<g clip-path="url(#clip0_1_265)" filter="url(#filter0_d_1_265)">
<path d="M10.707 39.87L4.00475 36.2394C3.91435 32.3551 4.81121 28.5082 6.61746 25.0328C8.16269 31.7781 16.2947 34.9872 20.0467 40.8766C21.2023 42.7221 21.9113 44.7941 22.1211 46.9389C22.3309 49.0837 22.0362 51.2464 21.2588 53.2668L21.6996 58.4966C18.2356 57.4988 15.0378 55.7906 12.3264 53.4897C9.61494 51.1888 7.45441 48.3498 5.99362 45.1686C5.19251 43.3761 4.62929 41.4937 4.31726 39.5658C7.44213 39.8856 10.707 39.87 10.707 39.87Z" fill="#F2F2F2"/>
<path d="M131.191 105.92L131.396 101.476C133.539 100.375 135.928 99.7929 138.358 99.7812C135.014 102.41 135.432 107.478 133.165 111.013C132.45 112.111 131.486 113.039 130.347 113.73C129.207 114.42 127.92 114.855 126.582 115.003L123.784 116.65C123.401 114.592 123.485 112.478 124.033 110.454C124.58 108.43 125.577 106.544 126.955 104.927C127.738 104.027 128.635 103.225 129.625 102.541C130.296 104.24 131.191 105.92 131.191 105.92Z" fill="#E6E6E6"/>
<path d="M123.982 114.363L121.448 114.363L120.243 104.965L123.982 104.965L123.982 114.363Z" fill="#FFB6B6"/>
<path d="M124.628 116.725L116.459 116.725V116.626C116.459 115.815 116.794 115.037 117.39 114.463C117.987 113.89 118.795 113.568 119.639 113.568H119.639L121.131 112.479L123.915 113.568L124.628 113.568L124.628 116.725Z" fill="#2F2E41"/>
<path d="M112.212 114.363L109.679 114.363L108.473 104.965L112.213 104.965L112.212 114.363Z" fill="#FFB6B6"/>
<path d="M112.858 116.725L104.689 116.725V116.626C104.689 115.815 105.024 115.037 105.621 114.463C106.217 113.89 107.026 113.568 107.869 113.568H107.869L109.361 112.479L112.145 113.568L112.858 113.568L112.858 116.725Z" fill="#2F2E41"/>
<path d="M111.115 62.9833L127.594 63.3795C130.724 65.0143 130.771 68.5527 129.746 72.7538C129.746 72.7538 130.092 75.2508 129.399 75.9167C128.707 76.5825 128.361 76.5825 128.707 77.7478C129.053 78.9131 127.224 80.8163 127.446 81.0299C127.669 81.2436 128.188 82.4089 128.188 82.4089L126.457 91.8974C126.457 91.8974 125.245 108.378 124.899 108.711C124.553 109.043 124.207 108.711 124.553 109.543C124.899 110.375 125.245 110.042 124.899 110.375C124.593 110.693 124.304 111.027 124.034 111.374H119.849C119.849 111.374 119.534 109.709 119.534 109.543C119.534 109.376 119.187 108.378 119.187 108.211C119.187 108.045 119.493 107.75 119.493 107.75C119.599 107.412 119.671 107.065 119.707 106.713C119.707 106.38 120.745 93.5621 120.745 93.5621L118.668 76.9155L113.649 93.2292C113.649 93.2292 113.649 107.545 113.302 107.878C112.956 108.211 112.956 108.045 113.129 108.711C113.302 109.376 113.995 109.21 113.476 109.709C112.956 110.209 112.783 109.376 112.956 110.209L113.129 111.041L107.937 111.113C107.937 111.113 107.244 109.709 107.591 109.21C107.937 108.711 107.916 108.847 107.494 108.03C107.071 107.212 106.898 107.046 107.071 106.879C107.244 106.713 107.244 105.828 107.244 105.828L108.11 89.8998C108.11 89.8998 108.283 73.0867 108.283 72.5873C108.296 72.3304 108.247 72.074 108.139 71.8385V71.1606L108.802 68.7586L111.115 62.9833Z" fill="#69687F"/>
<path d="M121.014 30.0291C123.842 30.0291 126.134 27.8245 126.134 25.1049C126.134 22.3854 123.842 20.1808 121.014 20.1808C118.187 20.1808 115.894 22.3854 115.894 25.1049C115.894 27.8245 118.187 30.0291 121.014 30.0291Z" fill="#FFB6B6"/>
<path d="M118.454 33.2837C117.351 33.9144 116.691 35.0731 116.313 36.2523C115.611 38.4354 115.189 40.6925 115.056 42.9738L114.655 49.8035L109.701 64.3458C113.995 67.8404 130.136 65.1401 130.136 65.1401C130.136 65.1401 130.631 64.9812 130.136 64.5047C129.64 64.0281 129.158 64.4503 129.654 63.9738C130.149 63.4973 129.808 64.0281 129.642 63.5516C129.477 63.0751 129.642 63.3928 129.808 63.2339C129.973 63.0751 128.529 61.6455 128.529 61.6455L129.85 53.298L131.502 36.4605C129.52 34.0779 125.534 32.6733 125.534 32.6733L124.504 30.8904L119.355 31.2866L118.454 33.2837Z" fill="#130160"/>
<path d="M117.752 22.2151C117.95 22.2166 118.147 22.2415 118.339 22.2892C118.717 22.3766 119.101 22.4385 119.488 22.4745C120.674 22.5818 121.787 23.0679 122.652 23.8553C123.516 24.6428 124.081 25.686 124.256 26.8185C124.554 26.569 125.231 26.1101 125.786 26.5366C125.794 26.5434 125.799 26.5469 125.819 26.538C126.187 26.3699 126.841 24.3004 126.861 22.4783C126.872 21.5112 126.713 20.2762 125.9 19.8852L125.857 19.8645L125.846 19.8198C125.792 19.6022 125.185 19.2309 124.129 18.9418C122.212 18.4166 119.354 17.3934 117.745 18.8992C117.623 19.4068 117.226 20.4932 116.826 20.6163C116.383 20.7526 116 20.8703 115.94 21.3932C115.889 22.1373 115.893 22.884 115.951 23.6276C116.101 23.1726 116.396 22.7743 116.794 22.4888C117.077 22.3056 117.411 22.2101 117.752 22.2151Z" fill="#2F2E41"/>
<path d="M108.222 49.4233L116.586 44.2719L112.373 38.8864L108.214 43.8073L95.2537 44.5717C94.9128 44.2477 94.4813 44.026 94.0117 43.9337C93.542 43.8415 93.0547 43.8826 92.6089 44.0521C92.1632 44.2217 91.7784 44.5123 91.5015 44.8885C91.2245 45.2647 91.0673 45.7103 91.0491 46.171C91.031 46.6316 91.1525 47.0874 91.399 47.4828C91.6455 47.8781 92.0063 48.196 92.4373 48.3975C92.8684 48.5991 93.3511 48.6757 93.8267 48.6179C94.3022 48.5602 94.75 48.3706 95.1154 48.0724L108.222 49.4233Z" fill="#FFB6B6"/>
<path d="M124.348 37.0817C124.834 39.907 115.667 45.3021 115.667 45.3021C115.667 44.6389 110.196 49.6452 109.949 49.0952C109.247 47.5321 108.753 43.8298 107.773 43.2373C107.212 42.8984 111.151 39.7148 111.151 39.7148C111.151 39.7148 113.212 37.7172 115.918 35.1974C116.669 34.4714 117.599 33.94 118.621 33.6526C119.644 33.3653 120.725 33.3313 121.764 33.5539C121.764 33.5539 123.863 34.2564 124.348 37.0817Z" fill="#130160"/>
<path d="M141.587 50.7754L136.055 42.8427L130.545 47.0071L135.749 50.9024L136.818 63.3479C136.488 63.6825 136.267 64.1022 136.181 64.5557C136.095 65.0092 136.148 65.477 136.334 65.9019C136.52 66.3269 136.83 66.6908 137.227 66.9491C137.624 67.2075 138.09 67.3491 138.57 67.3569C139.049 67.3646 139.52 67.2381 139.926 66.9927C140.332 66.7473 140.654 66.3937 140.855 65.975C141.055 65.5562 141.124 65.0904 141.054 64.6344C140.984 64.1784 140.778 63.7518 140.46 63.4067L141.587 50.7754Z" fill="#FFB6B6"/>
<path d="M128.416 35.531C131.343 35.0045 137.145 43.7043 137.145 43.7043C136.456 43.7185 141.776 48.8732 141.209 49.1223C139.599 49.8302 135.761 50.3831 135.166 51.3387C134.825 51.8852 131.433 48.1653 131.433 48.1653C131.433 48.1653 129.312 46.2251 126.636 43.6768C125.865 42.9699 125.293 42.087 124.973 41.1102C124.652 40.1334 124.594 39.0945 124.803 38.0903C124.803 38.0903 125.489 36.0576 128.416 35.531Z" fill="#130160"/>
<path d="M143 116.764C143 116.795 142.994 116.826 142.981 116.855C142.969 116.883 142.951 116.909 142.928 116.931C142.906 116.953 142.879 116.97 142.849 116.982C142.819 116.994 142.787 117 142.755 117H85.0203C84.9553 117 84.8929 116.975 84.8469 116.931C84.801 116.887 84.7751 116.827 84.7751 116.764C84.7751 116.702 84.801 116.642 84.8469 116.598C84.8929 116.553 84.9553 116.528 85.0203 116.528H142.755C142.787 116.528 142.819 116.534 142.849 116.546C142.879 116.558 142.906 116.575 142.928 116.597C142.951 116.619 142.969 116.645 142.981 116.674C142.994 116.703 143 116.733 143 116.764Z" fill="#130160"/>
<path d="M89.5157 45.3247H19.4469C18.3522 45.3259 17.3027 45.7447 16.5286 46.4891C15.7545 47.2336 15.3191 48.243 15.3179 49.2959V91.252C15.3191 92.3048 15.7545 93.3142 16.5286 94.0587C17.3027 94.8031 18.3522 95.2219 19.4469 95.2231H89.5156C90.6103 95.2219 91.6599 94.8032 92.434 94.0587C93.208 93.3142 93.6435 92.3048 93.6447 91.252V49.2959C93.6435 48.243 93.2081 47.2336 92.434 46.4891C91.6599 45.7447 90.6104 45.3259 89.5157 45.3247Z" fill="#FCA34D"/>
<path d="M89.5157 45.3247H19.4469C18.3522 45.3259 17.3027 45.7447 16.5286 46.4891C15.7545 47.2336 15.3191 48.243 15.3179 49.2959V91.252C15.3191 92.3048 15.7545 93.3142 16.5286 94.0587C17.3027 94.8031 18.3522 95.2219 19.4469 95.2231H89.5156C90.6103 95.2219 91.6599 94.8032 92.434 94.0587C93.208 93.3142 93.6435 92.3048 93.6447 91.252V49.2959C93.6435 48.243 93.2081 47.2336 92.434 46.4891C91.6599 45.7447 90.6104 45.3259 89.5157 45.3247ZM90.8707 75.4623C90.854 79.7337 89.0972 83.8286 85.9773 86.8686C82.8575 89.9086 78.623 91.6515 74.1824 91.7234C67.0726 91.8124 78.1162 91.8471 69.5413 91.8471C49.9334 91.8471 29.4877 91.6669 21.8592 91.5501C20.8555 91.5302 19.8997 91.1337 19.1958 90.4453C18.4919 89.7569 18.0958 88.8311 18.0919 87.8656V49.299C18.0923 48.9532 18.235 48.6217 18.4889 48.3769C18.7428 48.1322 19.0872 47.994 19.4466 47.9928H89.5128C89.8722 47.9932 90.2169 48.1305 90.4713 48.3746C90.7258 48.6187 90.8694 48.9498 90.8707 49.2955V75.4623Z" fill="#130160"/>
<path d="M80.8903 21.165H27.5054C27.033 21.1657 26.5724 21.3065 26.1864 21.5683C25.8004 21.8301 25.5078 22.2001 25.3485 22.6278L17.1036 44.8749C16.9805 45.2069 16.9422 45.5625 16.9917 45.9118C17.0412 46.2611 17.1772 46.5939 17.3883 46.8821C17.5993 47.1703 17.8792 47.4056 18.2044 47.5682C18.5296 47.7308 18.8907 47.8159 19.2572 47.8164L90.8552 47.9387H90.8584C91.2373 47.9386 91.6103 47.8482 91.9439 47.6754C92.2775 47.5026 92.5613 47.253 92.7699 46.9487C92.9785 46.6445 93.1053 46.2952 93.139 45.9323C93.1727 45.5693 93.1122 45.2039 92.963 44.869L92.8381 44.9204L92.963 44.869L82.9949 22.4997C82.8187 22.1034 82.5253 21.7656 82.1511 21.5283C81.7769 21.291 81.3385 21.1647 80.8903 21.165Z" fill="#130160"/>
<path d="M93.1483 45.3521C93.148 45.6504 93.085 45.9456 92.9629 46.2198L82.9954 63.439C82.818 63.8344 82.5241 64.1714 82.1501 64.4083C81.776 64.6451 81.3381 64.7717 80.8903 64.7722H27.5061C27.0336 64.7718 26.5727 64.6311 26.1864 64.3695C25.8 64.1078 25.5071 63.7379 25.3474 63.3102L17.104 46.2138C17.003 45.9415 16.9587 45.6526 16.9738 45.3638C16.9889 45.075 17.0631 44.7918 17.192 44.5306C17.3209 44.2693 17.5021 44.0351 17.7253 43.8412C17.9484 43.6473 18.209 43.4977 18.4923 43.4008C18.7374 43.3157 18.996 43.2721 19.2565 43.272L28.0025 43.2561L31.5722 43.2502L78.5442 43.171L82.1159 43.165L90.8557 43.1492H90.8577C91.4652 43.1493 92.0477 43.3814 92.4773 43.7945C92.9068 44.2076 93.1481 44.7679 93.1483 45.3521Z" fill="#130160"/>
<path d="M24.6997 76.7965C25.7584 76.7965 40.2954 77.651 40.2954 78.6691C40.2954 79.6872 25.7583 80.4835 24.6997 80.4835C24.1914 80.4835 23.7038 80.2893 23.3444 79.9435C22.9849 79.5978 22.783 79.1289 22.783 78.64C22.783 78.1511 22.9849 77.6822 23.3444 77.3365C23.7038 76.9907 24.1914 76.7965 24.6997 76.7965Z" fill="#130160"/>
<path d="M70.5417 60.3663H39.5745C39.3068 60.3663 39.0501 60.4686 38.8608 60.6506C38.6715 60.8327 38.5652 61.0796 38.5652 61.337C38.5652 61.5945 38.6715 61.8414 38.8608 62.0234C39.0501 62.2055 39.3068 62.3078 39.5745 62.3078H70.5417C70.8094 62.3078 71.0661 62.2055 71.2554 62.0234C71.4447 61.8414 71.551 61.5945 71.551 61.337C71.551 61.0796 71.4447 60.8327 71.2554 60.6506C71.0661 60.4686 70.8094 60.3663 70.5417 60.3663Z" fill="#E4E4E4"/>
<path d="M54.744 75.8919C54.5712 75.8921 54.4 75.8595 54.24 75.7961L25.8552 64.3686V28.5984C25.8556 28.2821 25.9853 27.9789 26.2158 27.7552C26.4463 27.5316 26.7588 27.4058 27.0848 27.4054H81.539C81.865 27.4058 82.1775 27.5316 82.4081 27.7552C82.6386 27.9789 82.7682 28.2821 82.7686 28.5984V64.3935L82.7153 64.4157L55.2633 75.7905C55.0989 75.8575 54.9223 75.892 54.744 75.8919Z" fill="white"/>
<path d="M54.7045 64.2181C62.4295 64.2181 68.6919 58.1133 68.6919 50.5827C68.6919 43.0521 62.4295 36.9474 54.7045 36.9474C46.9794 36.9474 40.717 43.0521 40.717 50.5827C40.717 58.1133 46.9794 64.2181 54.7045 64.2181Z" fill="#FCA34D"/>
<path d="M52.8728 58.0602C52.6408 58.0602 52.412 58.0058 52.2045 57.9013C51.997 57.7969 51.8165 57.6452 51.6774 57.4584L48.012 52.5397C47.8936 52.3817 47.8074 52.2018 47.7582 52.0102C47.709 51.8187 47.6979 51.6192 47.7254 51.4233C47.753 51.2274 47.8187 51.0389 47.9187 50.8685C48.0188 50.6982 48.1512 50.5494 48.3085 50.4307C48.4658 50.312 48.6448 50.2257 48.8353 50.1767C49.0258 50.1277 49.224 50.1171 49.4186 50.1453C49.6132 50.1736 49.8003 50.2402 49.9693 50.3414C50.1382 50.4426 50.2857 50.5763 50.4032 50.7349L52.8012 53.9526L58.9601 44.6548C59.18 44.3229 59.5218 44.0924 59.9105 44.0142C60.2992 43.936 60.7028 44.0163 61.0326 44.2376C61.3624 44.4589 61.5914 44.803 61.6691 45.1941C61.7468 45.5853 61.667 45.9916 61.4471 46.3235L54.1164 57.3904C53.9838 57.5905 53.8055 57.7557 53.5963 57.8722C53.3872 57.9887 53.1533 58.053 52.9144 58.0597C52.9005 58.0599 52.8867 58.0602 52.8728 58.0602Z" fill="white"/>
</g>
<defs>
<filter id="filter0_d_1_265" x="0" y="0" width="147" height="125" filterUnits="userSpaceOnUse" color-interpolation-filters="sRGB">
<feFlood flood-opacity="0" result="BackgroundImageFix"/>
<feColorMatrix in="SourceAlpha" type="matrix" values="0 0 0 0 0 0 0 0 0 0 0 0 0 0 0 0 0 0 127 0" result="hardAlpha"/>
<feOffset dy="4"/>
<feGaussianBlur stdDeviation="2"/>
<feComposite in2="hardAlpha" operator="out"/>
<feColorMatrix type="matrix" values="0 0 0 0 0 0 0 0 0 0 0 0 0 0 0 0 0 0 0.25 0"/>
<feBlend mode="normal" in2="BackgroundImageFix" result="effect1_dropShadow_1_265"/>
<feBlend mode="normal" in="SourceGraphic" in2="effect1_dropShadow_1_265" result="shape"/>
</filter>
<clipPath id="clip0_1_265">
<rect width="139" height="117" fill="white" transform="translate(4)"/>
</clipPath>
</defs>
</svg>
